<svg xmlns="http://www.w3.org/2000/svg">
  <symbol id="arrow-down" viewBox="0 0 24 24">
    <path d="M5 10.5L12 17.5L19 10.5" stroke="#0D0D0D" stroke-width="1.5" stroke-linecap="round" stroke-linejoin="round"/>
  </symbol>

  <symbol id="wallet-icon" viewBox="0 0 30 30">
    <path d="M13.6375 5.0751L8.42499 12.5001H6.97499C6.74758 12.4983 6.52497 12.4345 6.33114 12.3155C6.13731 12.1966 5.9796 12.027 5.87499 11.8251C5.77646 11.6286 5.73151 11.4095 5.74468 11.19C5.75784 10.9706 5.82866 10.7584 5.94999 10.5751L10.3375 4.3251C10.4249 4.18006 10.5409 4.0543 10.6785 3.95546C10.816 3.85661 10.9721 3.78675 11.1375 3.7501C11.2992 3.72011 11.4653 3.72234 11.6262 3.75666C11.7871 3.79098 11.9396 3.85671 12.075 3.9501L13.6375 5.0751ZM24.4625 7.0251L18.325 2.7251C18.053 2.53658 17.7174 2.46361 17.3916 2.52219C17.0659 2.58077 16.7767 2.76612 16.5875 3.0376L14.65 5.7876L9.99999 12.5001H21.5625C21.749 12.4863 21.9301 12.4309 22.0923 12.3379C22.2546 12.2449 22.3939 12.1166 22.5 11.9626L24.775 8.7501C24.9635 8.47811 25.0365 8.14246 24.9779 7.81675C24.9193 7.49104 24.734 7.20185 24.4625 7.0126V7.0251Z" fill="#F9F9F9" stroke="#0D0D0D" stroke-width="1.3"/>
    <path d="M25 10H5C3.61929 10 2.5 11.1193 2.5 12.5V25C2.5 26.3807 3.61929 27.5 5 27.5H25C26.3807 27.5 27.5 26.3807 27.5 25V12.5C27.5 11.1193 26.3807 10 25 10Z" fill="#F9F9F9" stroke="#0D0D0D" stroke-width="1.3"/>
    <path d="M21.25 16.25H27.5V21.25H21.25C20.9185 21.25 20.6005 21.1183 20.3661 20.8839C20.1317 20.6495 20 20.3315 20 20V17.5C20 17.1685 20.1317 16.8505 20.3661 16.6161C20.6005 16.3817 20.9185 16.25 21.25 16.25Z" fill="#F9F9F9" stroke="#0D0D0D" stroke-width="1.3"/>
  </symbol>

  <symbol id="sack-icon" viewBox="0 0 30 30"> 
    <path d="M26.1375 6.975C26.0689 6.82537 25.9713 6.69078 25.8505 6.57895C25.7297 6.46712 25.588 6.38025 25.4335 6.32334C25.2791 6.26643 25.1149 6.24059 24.9504 6.24731C24.7859 6.25403 24.6243 6.29318 24.475 6.3625C24.0417 6.49129 23.5853 6.52334 23.1382 6.45638C22.6911 6.38942 22.2641 6.22509 21.8875 5.975C20.6024 5.39856 19.2085 5.10444 17.8 5.1125L18.0875 4.075C18.1364 3.88865 18.1415 3.69354 18.1024 3.50489C18.0634 3.31625 17.9813 3.13917 17.8625 2.9875C17.7461 2.83623 17.5965 2.71364 17.4254 2.62914C17.2542 2.54463 17.0659 2.50046 16.875 2.5H13.125C12.9341 2.50046 12.7459 2.54463 12.5747 2.62914C12.4035 2.71364 12.254 2.83623 12.1375 2.9875C12.0188 3.13917 11.9367 3.31625 11.8976 3.50489C11.8586 3.69354 11.8637 3.88865 11.9125 4.075L12.5875 6.575C12.6569 6.83324 12.8072 7.06244 13.0165 7.22894C13.2257 7.39543 13.4828 7.49043 13.75 7.5H15.6625C15.8412 7.60098 16.0451 7.64869 16.25 7.6375C17.7193 7.5192 19.197 7.71084 20.5875 8.2C21.5535 8.73757 22.6448 9.00931 23.75 8.9875C24.3759 8.99726 24.9971 8.87813 25.575 8.6375C25.8684 8.48985 26.0919 8.23267 26.1971 7.92157C26.3024 7.61047 26.281 7.27044 26.1375 6.975Z" fill="#F9F9F9" stroke="#0D0D0D" stroke-width="1.3"/>
    <path d="M24.3625 16.4626L22.6375 10.6751C22.144 9.03327 21.1346 7.59414 19.7589 6.57111C18.3832 5.54808 16.7144 4.99561 15 4.99561C13.2856 4.99561 11.6168 5.54808 10.2411 6.57111C8.86539 7.59414 7.85597 9.03327 7.3625 10.6751L5.6375 16.4626C5.21452 17.8568 4.9997 19.3057 5 20.7626C4.99892 22.098 5.42554 23.3985 6.21734 24.4738C7.00915 25.549 8.12452 26.3424 9.4 26.7376C11.2186 27.2675 13.1059 27.5245 15 27.5001C16.8941 27.5245 18.7814 27.2675 20.6 26.7376C21.8755 26.3424 22.9909 25.549 23.7827 24.4738C24.5745 23.3985 25.0011 22.098 25 20.7626C25.0003 19.3057 24.7855 17.8568 24.3625 16.4626Z" fill="#F9F9F9" stroke="#0D0D0D" stroke-width="1.3"/>
    <path d="M15.625 15H14.375C14.2092 15 14.0502 14.9342 13.933 14.8169C13.8158 14.6997 13.75 14.5408 13.75 14.375C13.75 14.2092 13.8158 14.0503 13.933 13.9331C14.0502 13.8158 14.2092 13.75 14.375 13.75H17.5C17.8315 13.75 18.1494 13.6183 18.3839 13.3839C18.6183 13.1495 18.75 12.8315 18.75 12.5C18.75 12.1685 18.6183 11.8505 18.3839 11.6161C18.1494 11.3817 17.8315 11.25 17.5 11.25H16.25C16.25 10.9185 16.1183 10.6005 15.8839 10.3661C15.6494 10.1317 15.3315 10 15 10C14.6685 10 14.3505 10.1317 14.1161 10.3661C13.8817 10.6005 13.75 10.9185 13.75 11.25V11.3125C12.9905 11.4667 12.3154 11.8976 11.8558 12.5216C11.3962 13.1455 11.1848 13.918 11.2627 14.6891C11.3405 15.4601 11.7021 16.1747 12.2773 16.6941C12.8524 17.2136 13.6 17.5008 14.375 17.5H15.625C15.7907 17.5 15.9497 17.5658 16.0669 17.6831C16.1841 17.8003 16.25 17.9592 16.25 18.125C16.25 18.2908 16.1841 18.4497 16.0669 18.5669C15.9497 18.6842 15.7907 18.75 15.625 18.75H12.5C12.1685 18.75 11.8505 18.8817 11.6161 19.1161C11.3817 19.3505 11.25 19.6685 11.25 20C11.25 20.3315 11.3817 20.6495 11.6161 20.8839C11.8505 21.1183 12.1685 21.25 12.5 21.25H13.75C13.75 21.5815 13.8817 21.8995 14.1161 22.1339C14.3505 22.3683 14.6685 22.5 15 22.5C15.3315 22.5 15.6494 22.3683 15.8839 22.1339C16.1183 21.8995 16.25 21.5815 16.25 21.25C17.0788 21.1671 17.8407 20.7584 18.3682 20.1137C18.8956 19.4691 19.1454 18.6413 19.0625 17.8125C18.9796 16.9837 18.5709 16.2218 17.9262 15.6943C17.2816 15.1669 16.4538 14.9171 15.625 15Z" fill="#F9F9F9" stroke="#0D0D0D" stroke-width="1.3"/>
  </symbol>

  <symbol id="phone-icon" viewBox="0 0 18 18">
    <path d="M15.75 11.25V14.1975C15.7523 14.4142 15.7076 14.6288 15.619 14.8266C15.5304 15.0244 15.4 15.2006 15.2368 15.3432C15.0736 15.4857 14.8814 15.5912 14.6735 15.6524C14.4656 15.7136 14.2469 15.729 14.0325 15.6975C11.0602 15.3157 8.29946 13.9558 6.18523 11.8321C4.071 9.70832 2.72348 6.94149 2.355 3.96752C2.32367 3.75374 2.33889 3.5357 2.39963 3.32834C2.46037 3.12098 2.56519 2.92919 2.70692 2.7661C2.84865 2.603 3.02394 2.47245 3.2208 2.38338C3.41766 2.29431 3.63143 2.24882 3.8475 2.25002H6.75C6.93541 2.2489 7.11467 2.31649 7.25317 2.43976C7.39168 2.56303 7.47961 2.73323 7.5 2.91752C7.57443 3.90045 7.82864 4.86138 8.25 5.75252C8.32226 5.92129 8.3301 6.1107 8.27204 6.28487C8.21399 6.45904 8.09407 6.60586 7.935 6.69752L7.29 7.06502C7.19703 7.11616 7.11597 7.18643 7.05217 7.27121C6.98837 7.35599 6.94328 7.45335 6.91989 7.55684C6.8965 7.66033 6.89533 7.76761 6.91647 7.87159C6.9376 7.97557 6.98056 8.07388 7.0425 8.16002C7.7845 9.24691 8.72312 10.1855 9.81 10.9275C9.89615 10.9895 9.99446 11.0324 10.0984 11.0536C10.2024 11.0747 10.3097 11.0735 10.4132 11.0501C10.5167 11.0267 10.614 10.9817 10.6988 10.9179C10.7836 10.8541 10.8539 10.773 10.905 10.68L11.2725 10.035C11.3696 9.87387 11.5238 9.75512 11.7044 9.70233C11.885 9.64954 12.0789 9.66656 12.2475 9.75002C13.1386 10.1714 14.0996 10.4256 15.0825 10.5C15.2668 10.5204 15.437 10.6083 15.5603 10.7469C15.6835 10.8854 15.7511 11.0646 15.75 11.25Z" stroke="black" stroke-width="1.2" stroke-linecap="round" stroke-linejoin="round"/>
  </symbol>

  <symbol id="email-icon" viewBox="0 0 18 18"> 
    <path d="M2.76 4.0875L8.535 8.6325C8.66741 8.73713 8.83124 8.79405 9 8.79405C9.16876 8.79405 9.33259 8.73713 9.465 8.6325L15.24 4.0875M15 14.25H3C2.80109 14.25 2.61032 14.171 2.46967 14.0303C2.32902 13.8897 2.25 13.6989 2.25 13.5V4.5C2.25 4.30109 2.32902 4.11032 2.46967 3.96967C2.61032 3.82902 2.80109 3.75 3 3.75H15C15.1989 3.75 15.3897 3.82902 15.5303 3.96967C15.671 4.11032 15.75 4.30109 15.75 4.5V13.5C15.75 13.6989 15.671 13.8897 15.5303 14.0303C15.3897 14.171 15.1989 14.25 15 14.25Z" stroke="black" stroke-width="1.2" stroke-linecap="round" stroke-linejoin="round"/>
  </symbol>

  <symbol id="close-icon" viewBox="0 0 18 18">
    <path d="M14.25 14.25L3.75 3.75" stroke="black" stroke-width="1.5" stroke-linecap="round" stroke-linejoin="round"/>
    <path d="M14.25 3.75L3.75 14.25" stroke="black" stroke-width="1.5" stroke-linecap="round" stroke-linejoin="round"/>
  </symbol>
</svg>