<svg width="70" height="60" viewBox="0 0 70 60" fill="none" xmlns="http://www.w3.org/2000/svg">
<path d="M23.4375 19.729C17.1563 30.6097 12 39.6769 11.9375 39.8958C11.8438 40.2397 12.3125 40.3022 14.25 40.2397L16.6875 40.1459L25.75 24.4502C30.75 15.8208 34.9063 8.7233 35 8.7233C35.0938 8.7233 39.25 15.7895 44.25 24.419L53.3125 40.1459L55.75 40.2397C58 40.3335 58.1875 40.271 58 39.7707C57.6563 38.864 35.1875 -0.0312538 35 1.52588e-05C34.9063 1.52588e-05 29.7188 8.87963 23.4375 19.729Z" fill="black"/>
<path d="M28.75 25.357C25.4063 31.2038 22.6251 36.1438 22.5626 36.2689C22.5001 36.4252 26.1876 36.5503 30.75 36.5503C35.3125 36.5503 39.0625 36.4565 39.0625 36.3627C39.0625 36.2689 38.5625 35.2684 37.9375 34.1741L36.8125 32.173H33.4063C31.5313 32.173 30 32.1105 30 32.0479C30 31.9854 31.6875 29.0151 33.75 25.4508C35.8125 21.8864 37.5 18.8848 37.5 18.8223C37.5 18.5722 35.1563 14.6639 35 14.6952C34.9063 14.6952 32.0938 19.4789 28.75 25.357Z" fill="black"/>
<path d="M37.1562 25.357C36.0625 27.2955 35.125 28.9839 35.0625 29.1089C35 29.2653 35.7812 29.3591 36.7812 29.3591H38.5937L41.75 34.7369L44.875 40.1459L47.2812 40.2397C48.5937 40.3023 49.6875 40.2085 49.6875 40.0521C49.6875 39.802 39.6562 22.3241 39.3125 22.0115C39.25 21.9177 38.2812 23.4497 37.1562 25.357Z" fill="black"/>
<path d="M1.90614 46.618C1.31239 48.0563 0.656137 49.432 0.437387 49.6821C0.093637 50.0886 0.156137 50.1511 0.812387 50.1511C1.28114 50.1511 1.49989 49.9948 1.40614 49.7447C1.34364 49.5258 1.43739 49.0255 1.62489 48.5878C1.90614 47.9937 2.21864 47.8062 2.99989 47.8062C3.81239 47.8062 4.06239 47.9625 4.31239 48.7129C4.49989 49.2131 4.49989 49.7447 4.37489 49.8697C4.21864 50.0261 4.49989 50.1511 5.03114 50.1511C5.96864 50.1511 6.12489 49.9948 5.65614 49.4945C5.46864 49.3382 4.93739 48.0875 4.43739 46.7118C3.93739 45.3674 3.40614 44.2105 3.21864 44.148C3.06239 44.0855 2.46864 45.2111 1.90614 46.618ZM3.56239 46.7744C3.74989 47.3997 3.68739 47.4935 2.99989 47.4935C2.06239 47.4935 2.09364 47.556 2.53114 46.2428C2.90614 45.1798 3.12489 45.3048 3.56239 46.7744Z" fill="black"/>
<path d="M9.40625 44.8984C9.40625 45.7738 9.4375 45.7738 9.75 45.0547C9.96875 44.6483 10.375 44.3669 10.8438 44.3669C11.5312 44.3669 11.5625 44.4294 11.5625 47.0245C11.5625 48.5878 11.4375 49.6821 11.25 49.6821C11.0938 49.6821 10.9375 49.7759 10.9375 49.901C10.9375 50.0573 11.3125 50.1511 11.8125 50.1511H12.6562L12.5625 47.2434C12.4375 44.4919 12.4688 44.3669 13.0938 44.3669C13.5 44.3669 13.875 44.6483 14.0625 45.0547C14.2188 45.4612 14.3438 45.6175 14.3438 45.3986C14.375 45.2111 14.4688 44.8359 14.5625 44.5545C14.7188 44.1167 14.375 44.0542 12.0625 44.0542H9.375L9.40625 44.8984Z" fill="black"/>
<path d="M19.0312 44.4607C17.5312 45.6175 17.3749 48.0563 18.7187 49.4007C20.7187 51.4018 24.0624 49.901 24.0624 46.9932C24.0624 45.9927 23.2812 44.4919 22.6562 44.2418C21.7812 43.9291 19.5624 44.0542 19.0312 44.4607ZM22.0624 44.617C22.6874 45.0235 23.1249 46.1803 23.1249 47.3372C23.1249 48.6191 21.9999 49.9948 20.9374 49.9948C19.7812 49.9948 18.7499 48.6191 18.7499 47.1183C18.7499 45.3048 19.4374 44.3669 20.7187 44.3669C21.2812 44.3669 21.8749 44.4919 22.0624 44.617Z" fill="black"/>
<path d="M27.4688 44.3356C27.7813 44.5232 27.8438 45.2736 27.7813 47.3997C27.6876 49.7447 27.7188 50.1824 28.1251 50.1824C28.5313 50.1824 28.5938 49.8385 28.5001 48.4315C28.2813 45.4612 28.5313 45.3049 29.5001 47.7436C30.0001 48.9943 30.5626 49.9635 30.7188 49.901C30.8751 49.8697 31.3438 48.963 31.7813 47.9625C32.9063 45.2736 33.1251 45.1798 33.1251 47.5248C33.1251 48.6504 33.0001 49.6821 32.8438 49.8385C32.6563 50.0261 32.8751 50.1511 33.4688 50.1511C33.9688 50.1511 34.3751 50.0573 34.3751 49.901C34.3751 49.7759 34.2501 49.6821 34.0626 49.6821C33.5938 49.6821 33.6563 44.8984 34.1251 44.4294C34.4063 44.148 34.3126 44.0542 33.6876 44.0542C32.9688 44.0542 32.7501 44.3043 31.9688 46.2429C31.5001 47.431 31.0001 48.4315 30.9063 48.4315C30.7813 48.4315 30.2813 47.4622 29.8126 46.2429C28.9688 44.2105 28.8438 44.0542 27.9688 44.0542C27.3126 44.0542 27.1563 44.148 27.4688 44.3356Z" fill="black"/>
<path d="M39.0625 46.618C38.5 48.0563 37.8438 49.432 37.625 49.6821C37.2813 50.0886 37.3438 50.1511 38 50.1511C38.4688 50.1511 38.6875 49.9948 38.5938 49.7447C38.5313 49.5258 38.625 49.0255 38.8125 48.5878C39.0938 47.9937 39.4063 47.8062 40.1875 47.8062C41.0625 47.8062 41.2188 47.9312 41.4063 48.7441C41.5313 49.2444 41.5313 49.7759 41.4688 49.901C41.375 50.0573 41.7188 50.1511 42.2188 50.1511C43.0625 50.1511 43.4375 49.8697 42.875 49.6196C42.75 49.5571 42.1875 48.3377 41.6875 46.8994C41.1563 45.4299 40.5938 44.2105 40.4063 44.148C40.25 44.0855 39.6563 45.2111 39.0625 46.618ZM40.75 46.7744C40.9375 47.3997 40.875 47.4935 40.1875 47.4935C39.25 47.4935 39.2813 47.556 39.7188 46.2428C40.0938 45.1798 40.3125 45.3048 40.75 46.7744Z" fill="black"/>
<path d="M46.2812 44.8984C46.2812 45.7738 46.2812 45.7738 46.5937 45.0547C46.7812 44.5232 47.0625 44.3669 47.5625 44.4294C48.2187 44.5232 48.2812 44.7108 48.375 46.8369C48.4375 48.1501 48.3125 49.3069 48.125 49.4945C47.625 49.9948 47.75 50.1511 48.75 50.1511C49.2812 50.1511 49.6875 50.0573 49.6875 49.901C49.6875 49.7759 49.5625 49.6821 49.375 49.6821C49.1875 49.6821 49.0625 48.5878 49.0625 47.0245C49.0625 44.4294 49.0937 44.3669 49.7812 44.3669C50.25 44.3669 50.6562 44.6483 50.875 45.0547C51.1875 45.7738 51.2187 45.7738 51.2187 44.8984L51.25 44.0542H48.75H46.25L46.2812 44.8984Z" fill="black"/>
<path d="M54.9375 44.4294C55.4062 44.8984 55.4687 49.6821 55 49.6821C54.8437 49.6821 54.6875 49.7759 54.6875 49.901C54.6875 50.0573 55.0937 50.1511 55.5937 50.1511C56.3125 50.1511 56.4375 50.0573 56.1875 49.7447C55.8437 49.3382 56.0312 49.0568 57.9375 46.9307C58.4687 46.3992 59 45.9302 59.125 45.9302C59.4687 45.9302 59.4375 49.4945 59.0937 49.8385C58.9062 50.0261 59.125 50.1511 59.7187 50.1511C60.2187 50.1511 60.625 50.0573 60.625 49.901C60.625 49.7759 60.5 49.6821 60.3125 49.6821C59.8437 49.6821 59.9062 44.8984 60.375 44.4294C60.6562 44.148 60.5 44.0542 59.6875 44.0542C58.9062 44.0542 58.7187 44.148 59.0625 44.3669C59.4062 44.5857 59.2187 44.9609 57.9687 46.3366C57.0937 47.2746 56.3125 48.0563 56.1875 48.0875C55.75 48.1501 55.9062 44.4294 56.3437 44.2731C56.5312 44.1793 56.2187 44.0855 55.6562 44.0855C54.8125 44.0542 54.6563 44.148 54.9375 44.4294Z" fill="black"/>
<path d="M64.625 44.2731C65.0938 44.4607 65.1563 49.4007 64.7188 49.8385C64.5313 50.0261 64.7188 50.1511 65.2813 50.1511C66.125 50.1511 66.125 50.1199 66 48.6504C65.8125 46.8369 66.25 46.7431 67.2188 48.3377C68 49.7134 68.6563 50.3075 69.3438 50.3075C69.6875 50.3075 69.6563 50.1511 69.1875 49.5883C68.8438 49.2131 68.3125 48.494 68 48.025C67.5 47.1808 67.5 47.0558 67.9688 46.0865C68.2188 45.4925 68.75 44.8046 69.1563 44.5232L69.8125 44.0542H68.9688C68.4063 44.0542 68.0313 44.2418 67.9375 44.5857C67.3438 46.4304 67.0625 46.8682 66.5 46.8682C65.9375 46.8682 65.875 46.6806 66 45.4612C66.0938 44.0855 66.0938 44.0542 65.1563 44.0855C64.6563 44.0855 64.4063 44.1793 64.625 44.2731Z" fill="black"/>
<path d="M0 51.5581C0 51.777 11.875 51.8708 35 51.8708C58.125 51.8708 70 51.777 70 51.5581C70 51.3392 58.125 51.2454 35 51.2454C11.875 51.2454 0 51.3392 0 51.5581Z" fill="black"/>
<path d="M58.6563 55.9979C58.7188 56.1542 58.9688 56.248 59.2188 56.248C59.4688 56.248 59.7188 56.1542 59.7813 55.9979C59.875 55.8729 59.625 55.7791 59.2188 55.7791C58.8125 55.7791 58.5625 55.8729 58.6563 55.9979Z" fill="black"/>
<path d="M34.1249 56.7483C32.7812 57.6863 33.4999 60 35.1562 60C36.1562 60 36.8749 59.2183 36.8749 58.124C36.8749 56.4669 35.4999 55.7791 34.1249 56.7483ZM35.8124 56.8108C37.0312 57.5925 36.4374 59.7811 35.0624 59.6248C34.3749 59.5623 34.1874 59.3434 34.1249 58.4992C33.9687 56.9984 34.8437 56.1542 35.8124 56.8108Z" fill="black"/>
<path d="M9.3125 58.2804C9.25 59.2809 9.34375 60 9.53125 60C9.71875 60 9.84375 59.2183 9.84375 58.2804C9.84375 56.0604 9.46875 56.0604 9.3125 58.2804Z" fill="black"/>
<path d="M10.7814 56.8734C10.8751 57.0297 11.0314 57.186 11.1251 57.186C11.1876 57.186 11.2501 57.0297 11.2501 56.8734C11.2501 56.6858 11.0939 56.5607 10.9064 56.5607C10.7501 56.5607 10.6876 56.6858 10.7814 56.8734Z" fill="black"/>
<path d="M12.0312 58.2804C12.0312 59.3434 12.1562 60 12.375 60C12.5938 60 12.6562 59.6873 12.5625 59.2183C12.4688 58.593 12.5625 58.4367 13.0625 58.4367C13.7812 58.4367 14.375 57.5925 14.1562 56.9359C14.0625 56.7483 13.7812 56.5607 13.5 56.5607C13.0625 56.5607 13.0625 56.6232 13.4062 56.8421C13.9375 57.186 13.625 58.124 12.9688 58.124C12.6875 58.124 12.5 57.8426 12.5 57.3424C12.5 56.9046 12.4062 56.5607 12.2812 56.5607C12.125 56.5607 12.0312 57.3424 12.0312 58.2804Z" fill="black"/>
<path d="M14.6875 56.7483C14.6875 56.8734 14.9688 57.4362 15.3438 58.0302C15.875 58.8744 15.9375 59.1558 15.625 59.531C15.4063 59.8124 15.375 60 15.5625 60C15.875 60 17.3125 56.9046 17.0938 56.6858C17 56.592 16.7813 56.9984 16.5625 57.5612L16.1875 58.593L15.6875 57.5612C15.25 56.6858 14.6875 56.2168 14.6875 56.7483Z" fill="black"/>
<path d="M18.125 58.2804C18.125 59.2183 18.2812 60 18.4375 60C18.625 60 18.75 59.2183 18.75 58.2804C18.75 57.3424 18.625 56.5607 18.4375 56.5607C18.2812 56.5607 18.125 57.3424 18.125 58.2804Z" fill="black"/>
<path d="M20.3125 58.2804C20.3125 59.2183 20.4687 60 20.625 60C20.8125 60 20.9375 59.2183 20.9375 58.2804C20.9375 57.3424 20.8125 56.5607 20.625 56.5607C20.4687 56.5607 20.3125 57.3424 20.3125 58.2804Z" fill="black"/>
<path d="M22.0312 58.2804C22.0312 59.2183 22.1875 60 22.3437 60C22.5312 60 22.6562 59.2183 22.6562 58.2804C22.6562 57.3424 22.5312 56.5607 22.3437 56.5607C22.1875 56.5607 22.0312 57.3424 22.0312 58.2804Z" fill="black"/>
<path d="M24.2188 58.2804C24.2188 59.2183 24.375 60 24.5313 60C24.7188 60 24.8125 59.2809 24.75 58.2804C24.5938 56.0604 24.2188 56.0604 24.2188 58.2804Z" fill="black"/>
<path d="M26.1875 58.2804C25.5937 59.5623 25.5 60 25.8125 60C26.0625 60 26.2187 59.9062 26.2187 59.7499C26.0312 58.6243 27.4375 58.2804 27.7187 59.3747C27.8125 59.7186 28.0937 60 28.3437 60C28.6875 60 28.75 59.8749 28.5 59.5935C28.3437 59.4059 28 58.6243 27.7812 57.8739C27.5937 57.1548 27.3125 56.5607 27.1875 56.5607C27.0937 56.5607 26.625 57.3424 26.1875 58.2804ZM27.125 58.4054C26.6562 58.5618 26.5312 58.2804 26.7812 57.655C26.9687 57.0922 27 57.0922 27.1875 57.6863C27.3125 57.999 27.2812 58.3429 27.125 58.4054Z" fill="black"/>
<path d="M30.5625 58.2804C30.5 59.4997 30.5937 60 30.875 60C31.0625 60 31.25 59.6561 31.25 59.2183C31.25 58.7806 31.375 58.4367 31.5 58.4367C31.6562 58.4367 31.9375 58.7806 32.125 59.2183C32.3125 59.6561 32.6562 60 32.8437 60C33.0625 60 33 59.6873 32.6562 59.1871C32.25 58.5618 32.2187 58.1866 32.4687 57.4674C32.625 56.9672 32.6562 56.5607 32.5 56.5607C32.3437 56.5607 32.1875 56.8734 32.125 57.2486C31.9687 58.2491 31.25 58.3429 31.25 57.3736C31.25 55.8103 30.6875 56.592 30.5625 58.2804Z" fill="black"/>
<path d="M37.75 58.2804C37.7188 59.2183 37.75 60 37.9063 60C38.0313 60 38.125 59.4059 38.1563 58.6556L38.1875 57.3424L38.6563 58.4992C38.9375 59.1558 39.25 59.6873 39.375 59.6873C39.5 59.6873 39.8438 59.1558 40.0938 58.4992L40.5938 57.3424V58.6556C40.625 59.531 40.7813 60 41.0313 60C41.2813 60 41.375 59.4997 41.3125 58.2804C41.25 57.3424 41.0625 56.5607 40.9063 56.5607C40.7188 56.5607 40.3438 57.1548 40.0313 57.8739L39.5 59.1871L38.9688 57.8739C38.6875 57.1548 38.3125 56.5607 38.1563 56.5607C38 56.5607 37.8125 57.3424 37.75 58.2804Z" fill="black"/>
<path d="M42.4375 58.2804C42.375 59.2809 42.4687 60 42.6562 60C42.8437 60 42.9687 59.2183 42.9687 58.2804C42.9687 56.0604 42.5937 56.0604 42.4375 58.2804Z" fill="black"/>
<path d="M44.5312 58.2804C44.5312 59.2183 44.6875 60 44.8437 60C45.0312 60 45.1562 59.2183 45.1562 58.2804C45.1562 57.3424 45.0312 56.5607 44.8437 56.5607C44.6875 56.5607 44.5312 57.3424 44.5312 58.2804Z" fill="black"/>
<path d="M46.7188 57.8739C46.4375 58.6243 46.125 59.4059 46.0313 59.5935C45.9375 59.8124 46.0313 60 46.2188 60C46.4063 60 46.5625 59.7186 46.5625 59.3747C46.5625 58.9057 46.7813 58.7493 47.3438 58.7493C47.9063 58.7493 48.125 58.9057 48.125 59.3747C48.125 59.7186 48.3125 60 48.5625 60C48.9063 60 48.875 59.6561 48.3438 58.2804C48 57.3424 47.625 56.5607 47.5 56.5607C47.375 56.5607 47 57.1548 46.7188 57.8739ZM47.8125 58.1866C47.8125 58.3429 47.5938 58.4367 47.3438 58.4367C46.8125 58.4367 46.7813 58.3742 47.0625 57.655C47.2188 57.2486 47.3125 57.2173 47.5313 57.5612C47.6875 57.7801 47.8125 58.0615 47.8125 58.1866Z" fill="black"/>
<path d="M49.6875 58.2804C49.6875 59.2183 49.8437 60 50 60C50.1875 60 50.3125 59.5623 50.3125 59.0307C50.3125 58.1866 50.4062 58.0928 51.1875 58.1866C51.875 58.2491 52.0312 58.4367 52.0312 59.1245C52 59.6248 52.1562 60 52.3437 60C52.5312 60 52.6562 59.2496 52.6562 58.2804C52.6562 57.186 52.5312 56.5607 52.2812 56.5607C52.0937 56.5607 52 56.8421 52.0937 57.186C52.25 57.7176 52.0937 57.8114 51.2812 57.8114C50.5312 57.8114 50.3125 57.6863 50.3125 57.186C50.3125 56.8421 50.1875 56.5607 50 56.5607C49.8437 56.5607 49.6875 57.3424 49.6875 58.2804Z" fill="black"/>
<path d="M53.75 58.2804C53.75 59.2183 53.9062 60 54.0625 60C54.25 60 54.375 59.8124 54.375 59.5935C54.375 59.3747 54.8125 58.7806 55.3437 58.2491L56.3125 57.3424L56.1875 58.6556C56.125 59.4372 56.2187 60 56.4062 60C56.5937 60 56.6875 59.3121 56.5937 58.2178L56.5 56.4044L55.4375 57.655L54.375 58.9057V57.7176C54.375 57.0922 54.25 56.5607 54.0625 56.5607C53.9062 56.5607 53.75 57.3424 53.75 58.2804Z" fill="black"/>
<path d="M57.8125 58.2804C57.8125 59.2183 57.9687 60 58.125 60C58.3125 60 58.4375 59.8124 58.4375 59.5935C58.4375 59.3747 58.875 58.7806 59.4062 58.2491L60.375 57.3424L60.25 58.6556C60.1875 59.4059 60.25 60 60.375 60C60.5312 60 60.625 59.2183 60.625 58.2804C60.625 57.3424 60.5312 56.5607 60.4062 56.5607C60.25 56.5607 59.8125 57.0922 59.375 57.7176L58.5937 58.8744L58.5 57.7176C58.3437 55.9041 57.8125 56.3731 57.8125 58.2804Z" fill="black"/>
</svg>
